<svg width="237" height="226" viewBox="0 0 237 226" fill="none" xmlns="http://www.w3.org/2000/svg">
<g filter="url(#filter0_d_193_1881)">
<path d="M197.303 176.92C157.55 227.751 96.4328 227.165 53.8234 194.221C-5.03688 148.713 -6.15756 89.2967 31.9007 58.8889C86.7212 15.0883 162.608 -14.9728 205.217 17.9712C247.827 50.9153 230.437 134.555 197.303 176.92Z" fill="#6E44FF"/>
<g style="mix-blend-mode:multiply">
<ellipse cx="121.303" cy="111.944" rx="28.4628" ry="29.0819" fill="#6E44FF" fill-opacity="0.3"/>
</g>
<path d="M158.771 69.5966L175.35 79.7601M175.35 79.7601L158.771 89.9235M175.35 79.7601V98.0543M175.35 124.479V144.129M175.35 144.129L158.771 133.965M175.35 144.129L158.771 153.615M138.214 166.488L121.635 175.974M121.635 175.974L104.394 166.488M121.635 175.974V156.325M67.2578 124.479V144.129M67.2578 144.129L82.51 133.965M67.2578 144.129L82.51 153.615M67.2578 99.4094V79.7601M67.2578 79.7601L82.51 70.9517M67.2578 79.7601L82.51 89.9235M104.394 58.078L121.635 47.9146M121.635 47.9146V69.5966M121.635 47.9146L138.214 58.078" stroke="white" stroke-width="3" stroke-linecap="round" stroke-linejoin="round"/>
<path d="M143.324 59.9954C144.084 59.5597 145.056 59.8202 145.495 60.5771L147.194 63.5007L144.444 65.0784L142.746 62.1548C142.306 61.3978 142.565 60.4311 143.324 59.9954Z" fill="#69CFFF"/>
<path d="M71.9186 107.4C72.3028 105.899 73.7799 104.94 75.3177 105.193L76.4729 105.384L77.6838 111.976L74.055 111.017C72.4661 110.597 71.5134 108.984 71.9186 107.4Z" fill="#69CFFF"/>
<path d="M91.377 123.377C90.3244 122.687 88.5173 122.462 86.6248 122.459C82.7657 122.453 79.1372 119.875 78.7429 116.053L153.961 72.8917L154.548 73.902C156.784 77.7516 155.444 82.6673 151.564 84.8507C140.577 91.033 120.095 102.619 115.011 105.912C112.177 107.748 115.771 114.362 118.068 122.896C121.479 135.562 126.813 150.572 127.423 151.621C127.652 152.015 127.997 152.133 128.395 152.079C129.943 151.868 131.934 152.302 132.028 153.856C132.075 154.638 131.593 155.354 130.849 155.608L105.361 164.292C103.006 165.094 100.487 163.599 100.073 161.153C98.2575 150.438 93.7135 124.911 91.377 123.377Z" fill="#E6F7FF"/>
<path d="M132.356 111.576L117.299 120.216L118.184 123.092L132.661 114.784C138.354 111.517 140.342 104.296 137.122 98.5768L134.735 94.3355L132.378 95.6878L135.276 100.677C137.495 104.497 136.188 109.377 132.356 111.576Z" fill="white"/>
<path d="M119.333 103.433L121.886 101.968C121.886 101.968 123.05 104.423 126.262 105.444C128.171 106.05 130.136 105.797 131.416 105.491C132.183 105.308 133.022 105.732 133.223 106.491C133.383 107.096 133.084 107.722 132.489 107.919C130.921 108.436 127.784 109.171 124.895 108.05C120.838 106.474 119.333 103.433 119.333 103.433Z" fill="white"/>
<path d="M76.8897 108.834C76.2836 105.89 77.6354 102.895 80.2467 101.397L146.723 63.2512C148.16 62.4266 150 62.9196 150.832 64.3522L153.941 69.7044C154.774 71.1371 154.283 72.9669 152.846 73.7916L78.4627 116.474L76.8897 108.834Z" fill="#E6F7FF"/>
<path d="M77.7346 97.6346C78.4939 97.1989 79.4658 97.4593 79.9055 98.2162L81.6039 101.14L78.8544 102.718L77.156 99.7939C76.7163 99.037 76.9754 98.0702 77.7346 97.6346Z" fill="#69CFFF"/>
<path d="M78.2341 102.553L146.726 63.2514C148.163 62.4268 150.003 62.9197 150.835 64.3524L153.863 69.5659L87.592 107.593C84.358 109.449 80.2169 107.946 78.9314 104.449L78.2341 102.553Z" fill="white"/>
<path d="M91.4903 123.573C90.4377 122.882 88.6306 122.657 86.7381 122.654C82.879 122.648 79.2505 120.071 78.8562 116.248L154.074 73.087L155.548 75.6245C155.548 75.6245 108.777 101.942 101.737 106.502C98.9032 108.338 100.519 119.21 102.816 127.744C106.227 140.41 107.091 146.372 109.004 152.821C110.632 158.309 125.413 153.8 129.784 152.334C130.502 152.093 131.294 152.356 131.717 152.983C132.314 153.869 131.916 155.074 130.908 155.431L105.51 164.416C103.147 165.251 100.594 163.755 100.176 161.29C98.3545 150.542 93.8226 125.103 91.4903 123.573Z" fill="#69CFFF" fill-opacity="0.3"/>
<path d="M83.8446 99.592L86.0092 111.883L83.0633 113.573L81.0951 101.17L83.8446 99.592Z" fill="#69CFFF"/>
<path d="M90.3265 95.8736L92.491 108.165L89.5452 109.855L87.577 97.4512L90.3265 95.8736Z" fill="#69CFFF"/>
<path d="M97.004 92.042L99.1686 104.333L96.2227 106.023L94.2545 93.6197L97.004 92.042Z" fill="#69CFFF"/>
<path d="M109.286 90.1989C108.848 89.4442 109.106 88.4804 109.863 88.0461L150.913 64.4909L152.5 67.2236L111.45 90.7788C110.693 91.2131 109.724 90.9535 109.286 90.1989Z" fill="#69CFFF"/>
<rect width="10.8685" height="5.86908" rx="2.93454" transform="matrix(0.86735 -0.497698 0.502298 0.864695 98.8867 104.754)" fill="white"/>
<path d="M92.0256 124.046L115.844 116.364L116.812 118.932L93.1068 126.808L92.0256 124.046Z" fill="white"/>
</g>
<defs>
<filter id="filter0_d_193_1881" x="0" y="0" width="236.434" height="225.301" filterUnits="userSpaceOnUse" color-interpolation-filters="sRGB">
<feFlood flood-opacity="0" result="BackgroundImageFix"/>
<feColorMatrix in="SourceAlpha" type="matrix" values="0 0 0 0 0 0 0 0 0 0 0 0 0 0 0 0 0 0 127 0" result="hardAlpha"/>
<feOffset dy="2"/>
<feGaussianBlur stdDeviation="3"/>
<feComposite in2="hardAlpha" operator="out"/>
<feColorMatrix type="matrix" values="0 0 0 0 0.431373 0 0 0 0 0.266667 0 0 0 0 1 0 0 0 0.3 0"/>
<feBlend mode="normal" in2="BackgroundImageFix" result="effect1_dropShadow_193_1881"/>
<feBlend mode="normal" in="SourceGraphic" in2="effect1_dropShadow_193_1881" result="shape"/>
</filter>
</defs>
</svg>
