<svg width="305" height="308" viewBox="0 0 305 308" fill="none" xmlns="http://www.w3.org/2000/svg">
<g style="mix-blend-mode:multiply">
<path d="M224.217 40.7065C292.796 116.797 333.376 174.32 274.488 244.67C215.6 315.019 83.109 330.804 36.7207 267.665C-9.31207 205.009 1.42002 111.825 48.2289 61.796C95.0377 11.7674 155.639 -35.3843 224.217 40.7065Z" fill="#69CFFF" fill-opacity="0.3"/>
</g>
<path d="M178.98 266.92L301.654 196.094L220.754 137.539L144.076 105.117L21.4023 175.942L100.191 206.254L178.98 266.92Z" fill="#6E44FF" stroke="#6E44FF" stroke-width="5" stroke-linecap="round" stroke-linejoin="round"/>
<path d="M178.98 249.633L301.654 178.807L222.865 133.318L144.076 87.8296L21.4023 158.655C21.4023 158.655 46.0114 168.788 60.7969 177.179C77.0112 186.38 100.191 204.144 100.191 204.144C100.191 204.144 124.8 214.277 139.586 222.668C155.8 231.869 178.98 249.633 178.98 249.633Z" fill="#E6F7FF" stroke="#E6F7FF" stroke-width="3" stroke-linecap="round" stroke-linejoin="round"/>
<path d="M144.076 87.8296L21.4023 158.655C21.4023 158.655 46.0114 168.788 60.7969 177.179C77.0112 186.38 100.191 204.144 100.191 204.144L222.865 133.318L144.076 87.8296Z" fill="white" stroke="white" stroke-width="3" stroke-linecap="round" stroke-linejoin="round"/>
<path d="M139.586 213.229C155.98 219.281 178.98 234.456 178.98 234.456L240.317 199.043L270.985 181.337L286.319 172.483L301.654 163.63C301.654 163.63 278.654 148.455 262.259 142.404C247.448 136.936 222.865 133.318 222.865 133.318L100.191 204.144C100.191 204.144 124.774 207.762 139.586 213.229Z" fill="white" stroke="white" stroke-width="3" stroke-linecap="round" stroke-linejoin="round"/>
<path d="M275.075 165.622C275.075 165.622 260.05 155.709 249.34 151.755C239.665 148.184 223.605 145.82 223.605 145.82" stroke="#6E44FF" stroke-width="2" stroke-linecap="round" stroke-linejoin="round"/>
<path d="M208.273 154.674C208.273 154.674 224.333 157.037 234.008 160.609C240.215 162.9 247.871 167.192 253.212 170.397" stroke="#6E44FF" stroke-width="2" stroke-linecap="round" stroke-linejoin="round"/>
<path d="M244.407 183.328C244.407 183.328 229.382 173.415 218.672 169.462C208.997 165.89 192.938 163.527 192.938 163.527" stroke="#6E44FF" stroke-width="2" stroke-linecap="round" stroke-linejoin="round"/>
<path d="M177.605 172.38C177.605 172.38 193.665 174.743 203.34 178.315C209.134 180.453 216.19 184.336 221.447 187.45" stroke="#6E44FF" stroke-width="2" stroke-linecap="round" stroke-linejoin="round"/>
<path d="M162.27 181.233C162.27 181.233 178.329 183.596 188.004 187.168C194.685 189.634 203.044 194.419 208.389 197.67" stroke="#6E44FF" stroke-width="2" stroke-linecap="round" stroke-linejoin="round"/>
<path d="M198.407 209.888C198.407 209.888 183.382 199.974 172.672 196.021C162.997 192.45 146.938 190.086 146.938 190.086" stroke="#6E44FF" stroke-width="2" stroke-linecap="round" stroke-linejoin="round"/>
<path d="M183.071 218.741C183.071 218.741 168.046 208.828 157.337 204.874C147.661 201.303 131.602 198.939 131.602 198.939" stroke="#6E44FF" stroke-width="2" stroke-linecap="round" stroke-linejoin="round"/>
<path d="M113.457 196.486L209.384 141.103" stroke="#E6F7FF" stroke-width="2" stroke-linecap="round" stroke-linejoin="round"/>
<path d="M142.933 128.763L136.58 127.256M142.933 128.763L145.351 133.554M142.933 128.763L138.087 131.561M152.604 147.926L150.186 143.136M152.604 147.926L147.758 150.724M152.604 147.926L145.796 146.176M133.222 159.117L125.958 157.123M133.222 159.117L138.067 156.319M133.222 159.117L131.259 154.569M104.169 151.144L111.432 153.137M104.169 151.144L102.661 146.839M104.169 151.144L109.014 148.346M98.139 133.923L99.6464 138.228M98.139 133.923L102.984 131.126M98.139 133.923L104.947 135.674M117.521 122.733L112.676 125.531M117.521 122.733L123.874 124.241M117.521 122.733L119.484 127.281" stroke="#6E44FF" stroke-width="2" stroke-linecap="round" stroke-linejoin="round"/>
<path d="M189.806 56.0501C189.942 54.9777 189.202 53.9911 188.134 53.8225L61.3898 33.8133C60.8789 33.7327 60.3567 33.853 59.9328 34.1491L54.3195 38.0694C53.8565 38.3927 53.5517 38.8968 53.4806 39.457L24.0623 271.003C23.9261 272.075 24.6667 273.062 25.7345 273.23L152.479 293.24C152.99 293.32 153.512 293.2 153.936 292.904L159.549 288.984C160.012 288.66 160.317 288.156 160.388 287.596L189.806 56.0501Z" fill="white" stroke="white" stroke-width="4" stroke-linejoin="round"/>
<path d="M187.822 55.7981L61.0779 35.7889L55.4646 39.7091L26.0464 271.255L152.791 291.264L158.404 287.344L187.822 55.7981Z" fill="#69CFFF" fill-opacity="0.15"/>
<path d="M189.806 56.0501C189.942 54.9777 189.202 53.9911 188.134 53.8225L61.3898 33.8133C60.8789 33.7327 60.3567 33.853 59.9328 34.1491L54.3195 38.0694C53.8565 38.3927 53.5517 38.8968 53.4806 39.457L24.0623 271.003C23.9261 272.075 24.6667 273.062 25.7345 273.23L152.479 293.24C152.99 293.32 153.512 293.2 153.936 292.904L159.549 288.984C160.012 288.66 160.317 288.156 160.388 287.596L189.806 56.0501Z" stroke="#69CFFF" stroke-opacity="0.15" stroke-width="4" stroke-linejoin="round"/>
<path d="M55.7774 37.7336C55.2431 37.6492 54.6974 37.7849 54.2648 38.1096C53.8322 38.4343 53.5496 38.9204 53.4815 39.457L24.0632 271.003C23.927 272.075 24.6676 273.062 25.7354 273.23L152.48 293.24C153.014 293.324 153.56 293.188 153.992 292.864C154.425 292.539 154.707 292.053 154.776 291.516L184.194 59.9704C184.33 58.898 183.59 57.9114 182.522 57.7428L55.7774 37.7336Z" fill="white" stroke="white" stroke-width="4" stroke-linejoin="round"/>
<ellipse cx="87.6701" cy="271.861" rx="9.7296" ry="10.3943" transform="rotate(5.89023 87.6701 271.861)" fill="#6E44FF"/>
<path fill-rule="evenodd" clip-rule="evenodd" d="M65.5053 47.6333C64.1358 47.4171 62.7372 47.7648 61.6284 48.5971C60.5196 49.4295 59.7952 50.6754 59.6204 52.0508L35.1911 244.33C34.8419 247.079 36.7401 249.607 39.4772 250.04L144.728 266.655C146.097 266.872 147.496 266.524 148.604 265.692C149.713 264.859 150.438 263.613 150.612 262.238L175.042 69.959C175.391 67.2101 173.493 64.6813 170.756 64.2492L65.5053 47.6333ZM40.2765 244.976L64.7059 52.6969L64.7062 52.6969L40.2768 244.976L40.2765 244.976Z" fill="#6E44FF" fill-opacity="0.3"/>
<mask id="mask0_324_2641" style="mask-type:alpha" maskUnits="userSpaceOnUse" x="35" y="47" width="141" height="220">
<path fill-rule="evenodd" clip-rule="evenodd" d="M65.5053 47.6333C64.1358 47.4171 62.7372 47.7648 61.6284 48.5971C60.5196 49.4295 59.7952 50.6754 59.6204 52.0508L35.1911 244.33C34.8419 247.079 36.7401 249.607 39.4772 250.04L144.728 266.655C146.097 266.872 147.496 266.524 148.604 265.692C149.713 264.859 150.438 263.613 150.612 262.238L175.042 69.959C175.391 67.2101 173.493 64.6813 170.756 64.2492L65.5053 47.6333ZM40.2765 244.976L64.7059 52.6969L64.7062 52.6969L40.2768 244.976L40.2765 244.976Z" fill="#69CFFF"/>
</mask>
<g mask="url(#mask0_324_2641)">
<path d="M178.98 266.92L301.654 196.095L220.754 137.539L144.076 105.117L21.4023 175.942L100.191 206.254L178.98 266.92Z" fill="#6E44FF" stroke="#6E44FF" stroke-width="5" stroke-linecap="round" stroke-linejoin="round"/>
<path d="M178.98 249.633L301.654 178.807L222.865 133.319L144.076 87.8298L21.4023 158.655C21.4023 158.655 46.0114 168.788 60.7969 177.179C77.0112 186.381 100.191 204.144 100.191 204.144C100.191 204.144 124.8 214.277 139.586 222.668C155.8 231.869 178.98 249.633 178.98 249.633Z" fill="#E6F7FF" stroke="#E6F7FF" stroke-width="3" stroke-linecap="round" stroke-linejoin="round"/>
<path d="M144.076 87.8298L21.4023 158.655C21.4023 158.655 46.0114 168.788 60.7969 177.179C77.0112 186.381 100.191 204.144 100.191 204.144L222.865 133.319L144.076 87.8298Z" fill="white" stroke="white" stroke-width="3" stroke-linecap="round" stroke-linejoin="round"/>
<path d="M139.586 213.229C155.98 219.281 178.98 234.456 178.98 234.456L240.317 199.043L270.985 181.337L286.319 172.484L301.654 163.63C301.654 163.63 278.654 148.455 262.259 142.404C247.448 136.936 222.865 133.319 222.865 133.319L100.191 204.144C100.191 204.144 124.774 207.762 139.586 213.229Z" fill="white" stroke="white" stroke-width="3" stroke-linecap="round" stroke-linejoin="round"/>
<path d="M162.415 180.244C161.869 180.163 161.361 180.541 161.28 181.088C161.2 181.634 161.578 182.142 162.124 182.222L162.415 180.244ZM188.004 187.168L188.351 186.23L188.004 187.168ZM207.869 198.525C208.341 198.812 208.956 198.662 209.243 198.19C209.53 197.718 209.38 197.103 208.909 196.816L207.869 198.525ZM188.351 186.23C183.435 184.416 176.937 182.92 171.703 181.88C169.079 181.359 166.759 180.951 165.095 180.672C164.263 180.533 163.594 180.426 163.133 180.354C162.902 180.318 162.724 180.29 162.602 180.272C162.541 180.263 162.495 180.256 162.464 180.251C162.448 180.249 162.436 180.247 162.428 180.246C162.424 180.245 162.421 180.245 162.419 180.244C162.418 180.244 162.417 180.244 162.416 180.244C162.416 180.244 162.416 180.244 162.415 180.244C162.415 180.244 162.415 180.244 162.27 181.233C162.124 182.222 162.124 182.222 162.124 182.223C162.124 182.223 162.124 182.223 162.124 182.223C162.125 182.223 162.125 182.223 162.126 182.223C162.128 182.223 162.131 182.224 162.135 182.224C162.142 182.225 162.153 182.227 162.168 182.229C162.198 182.234 162.243 182.24 162.302 182.249C162.421 182.267 162.597 182.294 162.824 182.33C163.279 182.401 163.94 182.506 164.765 182.645C166.414 182.921 168.714 183.326 171.314 183.842C176.529 184.878 182.898 186.349 187.658 188.106L188.351 186.23ZM208.909 196.816C203.562 193.563 195.13 188.733 188.351 186.23L187.658 188.106C194.239 190.536 202.526 195.274 207.869 198.525L208.909 196.816Z" fill="#6E44FF"/>
<path d="M197.857 210.723C198.318 211.027 198.938 210.9 199.242 210.439C199.546 209.978 199.419 209.357 198.958 209.053L197.857 210.723ZM147.083 189.097C146.537 189.017 146.029 189.394 145.948 189.941C145.868 190.487 146.246 190.995 146.792 191.076L147.083 189.097ZM172.672 196.021L173.019 195.083L172.672 196.021ZM198.407 209.888C198.958 209.053 198.958 209.053 198.958 209.053C198.958 209.053 198.957 209.053 198.957 209.053C198.957 209.052 198.956 209.052 198.955 209.051C198.953 209.05 198.95 209.048 198.946 209.046C198.939 209.041 198.927 209.033 198.913 209.024C198.883 209.004 198.84 208.976 198.783 208.938C198.669 208.864 198.501 208.755 198.283 208.614C197.849 208.334 197.216 207.929 196.425 207.431C194.842 206.435 192.619 205.067 190.06 203.573C184.956 200.596 178.46 197.092 173.019 195.083L172.326 196.96C177.595 198.904 183.966 202.334 189.052 205.301C191.588 206.78 193.791 208.137 195.36 209.124C196.144 209.617 196.77 210.018 197.198 210.294C197.413 210.433 197.578 210.54 197.689 210.613C197.745 210.649 197.787 210.677 197.815 210.695C197.829 210.705 197.84 210.712 197.847 210.716C197.85 210.718 197.853 210.72 197.854 210.721C197.855 210.722 197.856 210.722 197.856 210.722C197.856 210.723 197.857 210.723 197.857 210.723C197.857 210.723 197.857 210.723 198.407 209.888ZM173.019 195.083C168.103 193.269 161.605 191.773 156.371 190.734C153.747 190.213 151.427 189.804 149.763 189.525C148.931 189.386 148.262 189.279 147.801 189.207C147.57 189.171 147.391 189.144 147.27 189.125C147.209 189.116 147.163 189.109 147.132 189.104C147.116 189.102 147.104 189.1 147.096 189.099C147.092 189.098 147.089 189.098 147.087 189.098C147.085 189.097 147.085 189.097 147.084 189.097C147.084 189.097 147.084 189.097 147.083 189.097C147.083 189.097 147.083 189.097 146.938 190.086C146.792 191.076 146.792 191.076 146.792 191.076C146.792 191.076 146.792 191.076 146.792 191.076C146.793 191.076 146.793 191.076 146.794 191.076C146.796 191.076 146.799 191.077 146.803 191.077C146.81 191.078 146.821 191.08 146.836 191.082C146.866 191.087 146.911 191.094 146.97 191.103C147.089 191.121 147.265 191.147 147.492 191.183C147.947 191.254 148.608 191.36 149.433 191.498C151.082 191.774 153.382 192.179 155.982 192.695C161.197 193.731 167.566 195.202 172.326 196.96L173.019 195.083Z" fill="#6E44FF"/>
<path d="M182.521 219.576C182.982 219.88 183.602 219.753 183.906 219.292C184.21 218.831 184.083 218.211 183.622 217.907L182.521 219.576ZM131.747 197.95C131.201 197.87 130.693 198.248 130.612 198.794C130.532 199.34 130.91 199.849 131.456 199.929L131.747 197.95ZM157.337 204.875L157.683 203.937L157.337 204.875ZM183.071 218.741C183.622 217.907 183.622 217.907 183.622 217.906C183.622 217.906 183.622 217.906 183.621 217.906C183.621 217.906 183.62 217.905 183.619 217.904C183.617 217.903 183.614 217.901 183.61 217.899C183.603 217.894 183.592 217.886 183.577 217.877C183.547 217.857 183.504 217.829 183.447 217.792C183.333 217.717 183.165 217.608 182.947 217.468C182.513 217.187 181.88 216.782 181.089 216.284C179.506 215.288 177.283 213.92 174.724 212.427C169.62 209.449 163.124 205.945 157.683 203.937L156.99 205.813C162.259 207.758 168.63 211.187 173.716 214.154C176.252 215.634 178.455 216.99 180.024 217.977C180.808 218.47 181.434 218.871 181.862 219.148C182.077 219.286 182.242 219.394 182.353 219.466C182.409 219.503 182.451 219.53 182.479 219.549C182.493 219.558 182.504 219.565 182.511 219.569C182.514 219.572 182.517 219.573 182.518 219.574C182.519 219.575 182.52 219.575 182.52 219.576C182.52 219.576 182.521 219.576 182.521 219.576C182.521 219.576 182.521 219.576 183.071 218.741ZM157.683 203.937C152.767 202.122 146.269 200.626 141.035 199.587C138.411 199.066 136.091 198.657 134.427 198.379C133.595 198.239 132.926 198.132 132.465 198.06C132.234 198.024 132.056 197.997 131.934 197.978C131.873 197.969 131.827 197.962 131.796 197.958C131.78 197.955 131.768 197.953 131.76 197.952C131.756 197.952 131.753 197.951 131.751 197.951C131.75 197.951 131.749 197.951 131.748 197.95C131.748 197.95 131.748 197.95 131.747 197.95C131.747 197.95 131.747 197.95 131.602 198.94C131.456 199.929 131.456 199.929 131.456 199.929C131.456 199.929 131.456 199.929 131.456 199.929C131.457 199.929 131.457 199.929 131.458 199.929C131.46 199.93 131.463 199.93 131.467 199.931C131.474 199.932 131.485 199.933 131.5 199.936C131.53 199.94 131.575 199.947 131.634 199.956C131.753 199.974 131.929 200.001 132.156 200.036C132.611 200.107 133.272 200.213 134.097 200.351C135.746 200.627 138.046 201.032 140.646 201.549C145.861 202.584 152.23 204.056 156.99 205.813L157.683 203.937Z" fill="#6E44FF"/>
<path d="M113.457 196.486L209.384 141.103" stroke="#E6F7FF" stroke-width="2" stroke-linecap="round" stroke-linejoin="round"/>
<path d="M142.933 128.764L136.58 127.256M142.933 128.764L145.351 133.554M142.933 128.764L138.087 131.561M152.604 147.927L150.186 143.136M152.604 147.927L147.758 150.724M152.604 147.927L145.796 146.176M133.222 159.117L125.958 157.124M133.222 159.117L138.067 156.319M133.222 159.117L131.259 154.569M104.169 151.144L111.432 153.137M104.169 151.144L102.661 146.839M104.169 151.144L109.014 148.346M98.139 133.924L99.6464 138.229M98.139 133.924L102.984 131.126M98.139 133.924L104.947 135.674M117.521 122.733L112.676 125.531M117.521 122.733L123.874 124.241M117.521 122.733L119.484 127.281" stroke="#6E44FF" stroke-width="2" stroke-linecap="round" stroke-linejoin="round"/>
<path d="M161.62 123.423C161.709 124.416 159.986 125.199 158.003 125.168C156.021 125.138 154.274 124.237 154.442 123.313C156.687 110.941 151.926 107.487 158.275 107.585C164.175 107.676 160.434 110.061 161.62 123.423Z" fill="#6E44FF"/>
<path fill-rule="evenodd" clip-rule="evenodd" d="M145.9 111.931C142.967 101.835 145.686 91.6355 153.333 89.4135C160.979 87.1918 170.656 93.7864 173.591 103.88C173.592 103.881 173.592 103.883 173.592 103.884C174.433 106.775 168.914 110.92 161.267 113.142C153.62 115.364 146.74 114.822 145.9 111.931Z" fill="#69CFFF"/>
<g style="mix-blend-mode:multiply">
<path fill-rule="evenodd" clip-rule="evenodd" d="M169.236 95.7818C170.713 97.5439 171.964 99.5931 172.871 101.859C172.728 102.165 172.551 102.463 172.34 102.747C170.812 104.803 168.073 105.355 166.223 103.979C164.372 102.604 164.11 99.8221 165.638 97.7662C166.553 96.5347 167.903 95.8429 169.236 95.7818ZM144.822 106.189C144.192 98.2812 147.127 91.3122 153.248 89.4824C153.998 89.576 154.689 89.8366 155.283 90.2781C158.015 92.3083 157.671 97.3969 154.515 101.644C151.705 105.425 147.614 107.264 144.822 106.189ZM157.557 109.492C157.01 110.227 155.88 110.313 155.032 109.683C154.185 109.053 153.941 107.946 154.487 107.211C155.034 106.475 156.164 106.39 157.012 107.019C157.859 107.649 158.104 108.756 157.557 109.492Z" fill="#69CFFF" fill-opacity="0.3"/>
</g>
<path d="M103.205 107.341C107.877 91.7638 106.565 64.8358 105.325 53.3189L98.541 31.2849L163.23 32.9112C162.026 34.0964 157.168 41.6721 147.365 62.4931C135.111 88.5193 138.46 107.394 145.962 121.056C153.463 134.719 157.163 135.836 160.731 139.786C164.298 143.737 162.168 151.133 157.484 153.148C152.8 155.163 146.403 155.999 142.639 151.129C142.711 152.102 142.719 153.151 142.639 154.273C142.213 160.309 134.118 163.682 126.884 161.808C119.649 159.933 119.44 154.886 121.183 151.133C119.437 151.804 114.1 153.148 106.727 153.148C97.5105 153.148 92.6898 151.738 89.6108 147.999C86.983 144.809 88.1797 141.35 89.6108 139.463C92.0415 135.995 94.3778 132.078 97.144 125.183C98.9364 120.715 100.909 114.997 103.205 107.341Z" fill="#6E44FF"/>
<g style="mix-blend-mode:multiply">
<path fill-rule="evenodd" clip-rule="evenodd" d="M92.5798 150.563C91.4229 149.87 90.4506 149.022 89.6085 147.999C86.9807 144.809 88.1775 141.35 89.6085 139.463C91.9169 136.169 94.1401 132.471 96.7271 126.202C99.8586 131.232 101.779 137.358 101.779 143.845C101.779 146.58 98.1751 149.012 92.5798 150.563Z" fill="#69CFFF" fill-opacity="0.15"/>
</g>
<g style="mix-blend-mode:multiply">
<path fill-rule="evenodd" clip-rule="evenodd" d="M121.175 151.138C121.176 151.136 121.177 151.134 121.178 151.133C119.638 151.725 115.305 152.84 109.246 153.095C113.492 152.183 117.406 150.154 119.606 146.786C122.896 141.748 123.719 134.746 124.256 130.179L124.256 130.179L124.256 130.179C124.4 128.957 124.523 127.909 124.668 127.12C125.345 141.859 122.461 149.056 121.179 151.133L121.175 151.138ZM155.025 154.033C150.745 155.283 145.775 155.191 142.636 151.131L142.635 151.129C142.321 146.868 140.688 143.448 137.986 138.719C140.463 140.71 143.48 143.903 145.129 148.977C146.287 152.54 149.334 154.68 155.025 154.033Z" fill="#6E44FF" fill-opacity="0.3"/>
</g>
<g style="mix-blend-mode:multiply">
<path fill-rule="evenodd" clip-rule="evenodd" d="M104.062 104.072C103.802 105.207 103.516 106.3 103.204 107.341C103.126 107.599 103.049 107.855 102.973 108.109C104.561 108.843 106.438 109.474 108.481 109.704C114.507 110.383 120.36 107.026 120.36 107.026C120.36 107.026 114.507 104.94 108.481 104.261C106.888 104.082 105.395 104.039 104.062 104.072ZM139.823 86.6499C138.725 86.6554 137.554 86.7172 136.396 86.874C131.937 87.4772 128.933 89.6773 128.933 89.6773C128.933 89.6773 133.811 91.6654 138.27 91.0621C138.654 91.0102 139.025 90.9377 139.383 90.8484C139.48 89.4775 139.626 88.0782 139.823 86.6499ZM119.067 70.7692C123.536 71.2979 130.15 68.969 130.15 68.969C130.15 68.969 124.577 66.7219 120.109 66.1932C115.64 65.6646 110.897 68.1382 110.897 68.1382C110.897 68.1382 114.599 70.2406 119.067 70.7692Z" fill="#6E44FF" fill-opacity="0.3"/>
</g>
<path fill-rule="evenodd" clip-rule="evenodd" d="M106.945 166.667C107.955 162.293 109.423 157.69 111.965 152.244L117.003 154.868C114.86 159.457 113.772 164.496 113.23 168.467C112.962 170.437 112.832 172.106 112.77 173.274C112.748 173.685 112.735 174.032 112.727 174.307H112.724C112.724 174.307 112.724 174.307 112.724 174.307C112.724 175.191 111.192 175.906 109.301 175.906C107.411 175.906 105.879 175.191 105.879 174.307C105.879 174.307 105.879 174.307 105.879 174.307H105.879C105.879 174.306 105.879 174.305 105.879 174.305C105.879 174.293 105.879 174.282 105.88 174.271C105.889 173.919 105.906 173.461 105.935 172.911C105.974 172.168 106.194 170.98 106.432 169.694C106.618 168.689 106.815 167.626 106.945 166.667Z" fill="#6E44FF"/>
<path fill-rule="evenodd" clip-rule="evenodd" d="M99.3843 149.182C101.107 143.041 109.114 139.918 117.268 142.206C125.422 144.493 130.635 151.326 128.912 157.467C127.888 161.116 120.448 162.221 112.294 159.933C104.14 157.645 98.3603 152.832 99.3843 149.182Z" fill="#69CFFF"/>
<g style="mix-blend-mode:multiply">
<path fill-rule="evenodd" clip-rule="evenodd" d="M119.839 151.345C121.884 153.945 125.262 154.7 127.384 153.031C127.901 152.625 128.296 152.112 128.568 151.531C127.306 148.225 124.353 145.212 120.362 143.35C120.231 143.43 120.104 143.519 119.981 143.615C117.858 145.284 117.795 148.745 119.839 151.345ZM106.929 150.253C108.565 150.062 109.764 148.824 109.608 147.489C109.452 146.154 107.999 145.226 106.363 145.418C104.727 145.609 103.528 146.846 103.684 148.182C103.84 149.517 105.293 150.445 106.929 150.253ZM117.209 156.877C117.098 157.824 116.069 158.482 114.909 158.347C113.749 158.211 112.899 157.334 113.009 156.387C113.12 155.441 114.149 154.783 115.309 154.918C116.469 155.054 117.319 155.931 117.209 156.877Z" fill="#69CFFF" fill-opacity="0.3"/>
</g>
<path d="M80.0092 161.821C80.1497 163.167 77.8265 164.266 75.134 164.266C72.4415 164.266 70.0505 163.079 70.2588 161.821C73.0479 144.973 66.5112 140.382 75.134 140.382C83.1486 140.382 78.1187 143.7 80.0092 161.821Z" fill="#6E44FF"/>
<path fill-rule="evenodd" clip-rule="evenodd" d="M56.4688 138.9C56.4688 119.021 63.8904 101.936 74.7204 101.936C85.5505 101.936 95.6879 119.021 95.6879 138.9C95.6879 144.593 86.9084 149.208 76.0783 149.208C65.2483 149.208 56.4688 144.593 56.4688 138.9Z" fill="#69CFFF"/>
<g style="mix-blend-mode:multiply">
<path fill-rule="evenodd" clip-rule="evenodd" d="M57.4805 126.76C58.8236 118.815 61.4448 112.021 64.9979 107.612C68.0987 105.914 71.2888 105.676 73.4823 107.306C77.0902 109.987 76.6361 116.708 72.4681 122.316C68.3001 127.925 61.9965 130.298 58.3886 127.617C58.0503 127.366 57.7477 127.079 57.4805 126.76ZM91.6026 141.87C89.0319 145.33 84.0231 145.961 80.4153 143.279C76.8074 140.598 75.9666 135.62 78.5374 132.161C81.1081 128.702 86.1168 128.071 89.7247 130.752C93.3326 133.433 94.1733 138.411 91.6026 141.87Z" fill="#69CFFF" fill-opacity="0.3"/>
</g>
<path d="M99.4134 141.89L99.2789 143.052L100.343 143.539L99.1958 143.77L99.0613 144.933L98.4869 143.913L97.3401 144.144L98.132 143.283L97.5577 142.264L98.6214 142.751L99.4134 141.89Z" fill="white"/>
<path d="M101.767 137.339L101.935 138.079L102.691 138.149L102.038 138.537L102.206 139.277L101.635 138.777L100.983 139.165L101.282 138.468L100.711 137.967L101.467 138.036L101.767 137.339Z" fill="white"/>
<path d="M102.904 127.216L103.071 127.956L103.827 128.025L103.175 128.414L103.342 129.154L102.772 128.654L102.119 129.042L102.419 128.344L101.848 127.844L102.604 127.913L102.904 127.216Z" fill="white"/>
<path d="M106.677 71.0797L106.845 71.8201L107.601 71.8895L106.948 72.2777L107.116 73.0181L106.545 72.5176L105.893 72.9057L106.192 72.2082L105.622 71.7078L106.378 71.7772L106.677 71.0797Z" fill="white"/>
<path d="M101.518 77.0356L100.948 79.0017L102.641 80.1521L100.595 80.2168L100.024 82.1829L99.3302 80.2568L97.2839 80.3215L98.9013 79.0664L98.2075 77.1403L99.901 78.2907L101.518 77.0356Z" fill="white"/>
<path d="M103.055 66.7718L102.449 67.8459L103.284 68.7536L102.075 68.5098L101.47 69.5839L101.328 68.3591L100.12 68.1153L101.241 67.6021L101.099 66.3773L101.934 67.2849L103.055 66.7718Z" fill="white"/>
<path d="M113.2 129.686L112.427 131.441L113.858 132.719L111.95 132.526L111.177 134.282L110.77 132.408L108.862 132.215L110.519 131.249L110.112 129.375L111.543 130.652L113.2 129.686Z" fill="white"/>
<path d="M137.52 82.2604L136.748 84.0159L138.179 85.2931L136.27 85.1009L135.498 86.8564L135.091 84.982L133.182 84.7898L134.839 83.8236L134.432 81.9493L135.863 83.2265L137.52 82.2604Z" fill="white"/>
<path d="M95.0165 130.657L95.3853 132.286L97.049 132.439L95.6132 133.293L95.982 134.923L94.7259 133.821L93.2901 134.676L93.9495 133.141L92.6933 132.039L94.3571 132.192L95.0165 130.657Z" fill="white"/>
</g>
<g style="mix-blend-mode:multiply">
<path fill-rule="evenodd" clip-rule="evenodd" d="M65.5053 47.6333C64.1358 47.4171 62.7372 47.7648 61.6284 48.5971C60.5196 49.4295 59.7952 50.6754 59.6204 52.0508L35.1911 244.33C34.8419 247.079 36.7401 249.607 39.4772 250.04L144.728 266.655C146.097 266.872 147.496 266.524 148.604 265.692C149.713 264.859 150.438 263.613 150.612 262.238L175.042 69.959C175.391 67.2101 173.493 64.6813 170.756 64.2492L65.5053 47.6333ZM40.2765 244.976L64.7059 52.6969L64.7062 52.6969L40.2768 244.976L40.2765 244.976Z" fill="#6E44FF" fill-opacity="0.15"/>
</g>
</svg>
