<svg width="298" height="308" viewBox="0 0 298 308" fill="none" xmlns="http://www.w3.org/2000/svg">
<g style="mix-blend-mode:multiply">
<path d="M217.092 40.7065C285.671 116.797 326.251 174.32 267.363 244.67C208.475 315.019 75.984 330.804 29.5957 267.665C-16.4371 205.009 -5.70498 111.825 41.1039 61.796C87.9127 11.7674 148.514 -35.3843 217.092 40.7065Z" fill="#69CFFF" fill-opacity="0.3"/>
</g>
<path d="M171.855 266.92L294.529 196.095L213.629 137.539L136.951 105.117L14.2773 175.942L93.0664 206.254L171.855 266.92Z" fill="#6E44FF" stroke="#6E44FF" stroke-width="5" stroke-linecap="round" stroke-linejoin="round"/>
<path d="M171.855 249.633L294.529 178.807L215.74 133.319L136.951 87.8298L14.2773 158.655C14.2773 158.655 38.8864 168.788 53.6719 177.179C69.8862 186.381 93.0664 204.144 93.0664 204.144C93.0664 204.144 117.675 214.277 132.461 222.668C148.675 231.869 171.855 249.633 171.855 249.633Z" fill="#E6F7FF" stroke="#E6F7FF" stroke-width="3" stroke-linecap="round" stroke-linejoin="round"/>
<path d="M136.951 87.8298L14.2773 158.655C14.2773 158.655 38.8864 168.788 53.6719 177.179C69.8862 186.381 93.0664 204.144 93.0664 204.144L215.74 133.319L136.951 87.8298Z" fill="white" stroke="white" stroke-width="3" stroke-linecap="round" stroke-linejoin="round"/>
<path d="M132.461 213.229C148.855 219.281 171.855 234.456 171.855 234.456L233.192 199.043L263.86 181.337L279.194 172.484L294.529 163.63C294.529 163.63 271.529 148.455 255.134 142.404C240.323 136.936 215.74 133.319 215.74 133.319L93.0664 204.144C93.0664 204.144 117.649 207.762 132.461 213.229Z" fill="white" stroke="white" stroke-width="3" stroke-linecap="round" stroke-linejoin="round"/>
<path d="M267.95 165.622C267.95 165.622 252.925 155.709 242.215 151.756C232.54 148.184 216.48 145.821 216.48 145.821" stroke="#6E44FF" stroke-width="2" stroke-linecap="round" stroke-linejoin="round"/>
<path d="M201.148 154.674C201.148 154.674 217.208 157.037 226.883 160.609C233.09 162.9 240.746 167.193 246.087 170.398" stroke="#6E44FF" stroke-width="2" stroke-linecap="round" stroke-linejoin="round"/>
<path d="M237.282 183.328C237.282 183.328 222.257 173.415 211.547 169.462C201.872 165.89 185.812 163.527 185.812 163.527" stroke="#6E44FF" stroke-width="2" stroke-linecap="round" stroke-linejoin="round"/>
<path d="M170.48 172.38C170.48 172.38 186.54 174.744 196.215 178.315C202.009 180.454 209.065 184.336 214.322 187.45" stroke="#6E44FF" stroke-width="2" stroke-linecap="round" stroke-linejoin="round"/>
<path d="M155.145 181.233C155.145 181.233 171.204 183.597 180.879 187.168C187.56 189.634 195.919 194.419 201.264 197.67" stroke="#6E44FF" stroke-width="2" stroke-linecap="round" stroke-linejoin="round"/>
<path d="M191.282 209.888C191.282 209.888 176.257 199.975 165.547 196.021C155.872 192.45 139.812 190.086 139.812 190.086" stroke="#6E44FF" stroke-width="2" stroke-linecap="round" stroke-linejoin="round"/>
<path d="M175.946 218.741C175.946 218.741 160.921 208.828 150.212 204.875C140.536 201.303 124.477 198.94 124.477 198.94" stroke="#6E44FF" stroke-width="2" stroke-linecap="round" stroke-linejoin="round"/>
<path d="M106.332 196.486L202.259 141.103" stroke="#E6F7FF" stroke-width="2" stroke-linecap="round" stroke-linejoin="round"/>
<path d="M135.808 128.764L129.455 127.256M135.808 128.764L138.226 133.554M135.808 128.764L130.962 131.561M145.479 147.927L143.061 143.136M145.479 147.927L140.633 150.724M145.479 147.927L138.671 146.176M126.097 159.117L118.833 157.124M126.097 159.117L130.942 156.319M126.097 159.117L124.134 154.569M97.0436 151.144L104.307 153.137M97.0436 151.144L95.5362 146.839M97.0436 151.144L101.889 148.346M91.014 133.924L92.5214 138.229M91.014 133.924L95.8595 131.126M91.014 133.924L97.8221 135.674M110.396 122.733L105.551 125.531M110.396 122.733L116.749 124.241M110.396 122.733L112.359 127.281" stroke="#6E44FF" stroke-width="2" stroke-linecap="round" stroke-linejoin="round"/>
<mask id="mask0_342_2048" style="mask-type:alpha" maskUnits="userSpaceOnUse" x="28" y="47" width="140" height="220">
<path fill-rule="evenodd" clip-rule="evenodd" d="M58.3802 47.6333C57.0107 47.4171 55.6121 47.7648 54.5033 48.5971C53.3945 49.4294 52.6701 50.6754 52.4954 52.0508L28.066 244.33C27.7168 247.079 29.6151 249.607 32.3521 250.04L137.602 266.655C138.972 266.872 140.371 266.524 141.479 265.692C142.588 264.859 143.313 263.613 143.487 262.238L167.917 69.9589C168.266 67.2101 166.368 64.6813 163.631 64.2492L58.3802 47.6333ZM33.1515 244.976L57.5808 52.6969L57.5811 52.6969L33.1518 244.976L33.1515 244.976Z" fill="#69CFFF"/>
</mask>
<g mask="url(#mask0_342_2048)">
<path d="M171.855 266.92L294.529 196.095L213.629 137.539L136.951 105.117L14.2773 175.942L93.0664 206.254L171.855 266.92Z" fill="#6E44FF" stroke="#6E44FF" stroke-width="5" stroke-linecap="round" stroke-linejoin="round"/>
<path d="M171.855 249.633L294.529 178.807L215.74 133.319L136.951 87.8298L14.2773 158.655C14.2773 158.655 38.8864 168.788 53.6719 177.179C69.8862 186.381 93.0664 204.144 93.0664 204.144C93.0664 204.144 117.675 214.277 132.461 222.668C148.675 231.869 171.855 249.633 171.855 249.633Z" fill="#E6F7FF" stroke="#E6F7FF" stroke-width="3" stroke-linecap="round" stroke-linejoin="round"/>
<path d="M136.951 87.8298L14.2773 158.655C14.2773 158.655 38.8864 168.788 53.6719 177.179C69.8862 186.381 93.0664 204.144 93.0664 204.144L215.74 133.319L136.951 87.8298Z" fill="white" stroke="white" stroke-width="3" stroke-linecap="round" stroke-linejoin="round"/>
<path d="M132.461 213.229C148.855 219.281 171.855 234.456 171.855 234.456L233.192 199.043L263.86 181.337L279.194 172.484L294.529 163.63C294.529 163.63 271.529 148.455 255.134 142.404C240.323 136.936 215.74 133.319 215.74 133.319L93.0664 204.144C93.0664 204.144 117.649 207.762 132.461 213.229Z" fill="white" stroke="white" stroke-width="3" stroke-linecap="round" stroke-linejoin="round"/>
<path d="M155.29 180.244C154.744 180.163 154.236 180.541 154.155 181.088C154.075 181.634 154.453 182.142 154.999 182.222L155.29 180.244ZM180.879 187.168L181.226 186.23L180.879 187.168ZM200.744 198.525C201.216 198.812 201.831 198.662 202.118 198.19C202.405 197.718 202.255 197.103 201.784 196.816L200.744 198.525ZM181.226 186.23C176.31 184.416 169.812 182.92 164.578 181.88C161.954 181.359 159.634 180.951 157.97 180.672C157.138 180.533 156.469 180.426 156.008 180.354C155.777 180.318 155.599 180.29 155.477 180.272C155.416 180.263 155.37 180.256 155.339 180.251C155.323 180.249 155.311 180.247 155.303 180.246C155.299 180.245 155.296 180.245 155.294 180.244C155.293 180.244 155.292 180.244 155.291 180.244C155.291 180.244 155.291 180.244 155.29 180.244C155.29 180.244 155.29 180.244 155.145 181.233C154.999 182.222 154.999 182.222 154.999 182.223C154.999 182.223 154.999 182.223 154.999 182.223C155 182.223 155 182.223 155.001 182.223C155.003 182.223 155.006 182.224 155.01 182.224C155.017 182.225 155.028 182.227 155.043 182.229C155.073 182.234 155.118 182.24 155.177 182.249C155.296 182.267 155.472 182.294 155.699 182.33C156.154 182.401 156.815 182.506 157.64 182.645C159.289 182.921 161.589 183.326 164.189 183.842C169.404 184.878 175.773 186.349 180.533 188.106L181.226 186.23ZM201.784 196.816C196.437 193.563 188.005 188.733 181.226 186.23L180.533 188.106C187.114 190.536 195.401 195.274 200.744 198.525L201.784 196.816Z" fill="#6E44FF"/>
<path d="M190.732 210.723C191.193 211.027 191.813 210.9 192.117 210.439C192.421 209.978 192.294 209.357 191.833 209.053L190.732 210.723ZM139.958 189.097C139.412 189.017 138.904 189.394 138.823 189.941C138.743 190.487 139.121 190.995 139.667 191.076L139.958 189.097ZM165.547 196.021L165.894 195.083L165.894 195.083L165.547 196.021ZM191.282 209.888C191.833 209.053 191.833 209.053 191.833 209.053C191.833 209.053 191.832 209.053 191.832 209.053C191.832 209.052 191.831 209.052 191.83 209.051C191.828 209.05 191.825 209.048 191.821 209.046C191.814 209.041 191.802 209.033 191.788 209.024C191.758 209.004 191.715 208.976 191.658 208.938C191.544 208.864 191.376 208.755 191.158 208.614C190.724 208.334 190.091 207.929 189.3 207.431C187.717 206.435 185.494 205.067 182.935 203.573C177.831 200.596 171.335 197.092 165.894 195.083L165.201 196.96C170.47 198.904 176.841 202.334 181.927 205.301C184.463 206.78 186.666 208.137 188.235 209.124C189.019 209.617 189.645 210.018 190.073 210.294C190.288 210.433 190.453 210.54 190.564 210.613C190.62 210.649 190.662 210.677 190.69 210.695C190.704 210.705 190.715 210.712 190.722 210.716C190.725 210.718 190.728 210.72 190.729 210.721C190.73 210.722 190.731 210.722 190.731 210.722C190.731 210.723 190.732 210.723 190.732 210.723C190.732 210.723 190.732 210.723 191.282 209.888ZM165.894 195.083C160.978 193.269 154.48 191.773 149.246 190.734C146.622 190.213 144.302 189.804 142.638 189.525C141.806 189.386 141.137 189.279 140.676 189.207C140.445 189.171 140.266 189.144 140.145 189.125C140.084 189.116 140.038 189.109 140.007 189.104C139.991 189.102 139.979 189.1 139.971 189.099C139.967 189.098 139.964 189.098 139.962 189.098C139.96 189.097 139.96 189.097 139.959 189.097C139.959 189.097 139.959 189.097 139.958 189.097C139.958 189.097 139.958 189.097 139.812 190.086C139.667 191.076 139.667 191.076 139.667 191.076C139.667 191.076 139.667 191.076 139.667 191.076C139.668 191.076 139.668 191.076 139.669 191.076C139.671 191.076 139.674 191.077 139.678 191.077C139.685 191.078 139.696 191.08 139.711 191.082C139.741 191.087 139.786 191.094 139.845 191.103C139.964 191.121 140.14 191.147 140.367 191.183C140.822 191.254 141.483 191.36 142.308 191.498C143.957 191.774 146.257 192.179 148.857 192.695C154.072 193.731 160.441 195.202 165.201 196.96L165.894 195.083Z" fill="#6E44FF"/>
<path d="M175.396 219.576C175.857 219.88 176.477 219.753 176.781 219.292C177.085 218.831 176.958 218.211 176.497 217.907L175.396 219.576ZM124.622 197.95C124.076 197.87 123.568 198.248 123.487 198.794C123.407 199.34 123.785 199.849 124.331 199.929L124.622 197.95ZM150.212 204.875L150.558 203.937L150.558 203.937L150.212 204.875ZM175.946 218.741C176.497 217.907 176.497 217.907 176.497 217.906C176.497 217.906 176.497 217.906 176.496 217.906C176.496 217.906 176.495 217.905 176.494 217.904C176.492 217.903 176.489 217.901 176.485 217.899C176.478 217.894 176.467 217.886 176.452 217.877C176.422 217.857 176.379 217.829 176.322 217.792C176.208 217.717 176.04 217.608 175.822 217.468C175.388 217.187 174.755 216.782 173.964 216.284C172.381 215.288 170.158 213.92 167.599 212.427C162.495 209.449 155.999 205.945 150.558 203.937L149.865 205.813C155.134 207.758 161.505 211.187 166.591 214.154C169.127 215.634 171.33 216.99 172.899 217.977C173.683 218.47 174.309 218.871 174.737 219.148C174.952 219.286 175.117 219.394 175.228 219.466C175.284 219.503 175.326 219.53 175.354 219.549C175.368 219.558 175.379 219.565 175.386 219.569C175.389 219.572 175.392 219.573 175.393 219.574C175.394 219.575 175.395 219.575 175.395 219.576C175.395 219.576 175.396 219.576 175.396 219.576C175.396 219.576 175.396 219.576 175.946 218.741ZM150.558 203.937C145.642 202.122 139.144 200.626 133.91 199.587C131.286 199.066 128.966 198.657 127.302 198.379C126.47 198.239 125.801 198.132 125.34 198.06C125.109 198.024 124.931 197.997 124.809 197.978C124.748 197.969 124.702 197.962 124.671 197.958C124.655 197.955 124.643 197.953 124.635 197.952C124.631 197.952 124.628 197.951 124.626 197.951C124.625 197.951 124.624 197.951 124.623 197.95C124.623 197.95 124.623 197.95 124.622 197.95C124.622 197.95 124.622 197.95 124.477 198.94C124.331 199.929 124.331 199.929 124.331 199.929C124.331 199.929 124.331 199.929 124.331 199.929C124.332 199.929 124.332 199.929 124.333 199.929C124.335 199.93 124.338 199.93 124.342 199.931C124.349 199.932 124.36 199.933 124.375 199.936C124.405 199.94 124.45 199.947 124.509 199.956C124.628 199.974 124.804 200.001 125.031 200.036C125.486 200.107 126.147 200.213 126.972 200.351C128.621 200.627 130.921 201.032 133.521 201.549C138.736 202.584 145.105 204.056 149.865 205.813L150.558 203.937Z" fill="#6E44FF"/>
<path d="M106.332 196.486L202.259 141.103" stroke="#E6F7FF" stroke-width="2" stroke-linecap="round" stroke-linejoin="round"/>
<path d="M135.808 128.764L129.455 127.256M135.808 128.764L138.226 133.554M135.808 128.764L130.962 131.561M145.479 147.927L143.061 143.136M145.479 147.927L140.633 150.724M145.479 147.927L138.671 146.176M126.097 159.117L118.833 157.124M126.097 159.117L130.942 156.319M126.097 159.117L124.134 154.569M97.0436 151.144L104.307 153.137M97.0436 151.144L95.5362 146.839M97.0436 151.144L101.889 148.346M91.014 133.924L92.5214 138.229M91.014 133.924L95.8595 131.126M91.014 133.924L97.8221 135.674M110.396 122.733L105.551 125.531M110.396 122.733L116.749 124.241M110.396 122.733L112.359 127.281" stroke="#6E44FF" stroke-width="2" stroke-linecap="round" stroke-linejoin="round"/>
<path d="M154.495 123.423C154.584 124.416 152.861 125.199 150.878 125.168C148.896 125.138 147.149 124.237 147.317 123.313C149.562 110.941 144.801 107.487 151.15 107.585C157.05 107.676 153.309 110.061 154.495 123.423Z" fill="#6E44FF"/>
<path fill-rule="evenodd" clip-rule="evenodd" d="M138.775 111.931C135.842 101.835 138.561 91.6355 146.208 89.4135C153.854 87.1918 163.531 93.7864 166.466 103.88C166.467 103.881 166.467 103.883 166.467 103.884C167.308 106.775 161.789 110.92 154.142 113.142C146.495 115.364 139.615 114.822 138.775 111.931Z" fill="#69CFFF"/>
<g style="mix-blend-mode:multiply">
<path fill-rule="evenodd" clip-rule="evenodd" d="M162.111 95.7818C163.588 97.5439 164.839 99.5931 165.746 101.859C165.603 102.165 165.426 102.463 165.215 102.747C163.687 104.803 160.948 105.355 159.098 103.979C157.247 102.604 156.985 99.8221 158.513 97.7662C159.428 96.5347 160.778 95.8429 162.111 95.7818ZM137.697 106.189C137.067 98.2812 140.002 91.3122 146.123 89.4824C146.873 89.576 147.564 89.8366 148.158 90.2781C150.89 92.3083 150.546 97.3969 147.39 101.644C144.58 105.425 140.489 107.264 137.697 106.189ZM150.432 109.492C149.885 110.227 148.755 110.313 147.907 109.683C147.06 109.053 146.816 107.946 147.362 107.211C147.909 106.475 149.039 106.39 149.887 107.019C150.734 107.649 150.979 108.756 150.432 109.492Z" fill="#69CFFF" fill-opacity="0.3"/>
</g>
<path d="M96.0802 107.341C100.752 91.7638 99.4398 64.8358 98.2 53.3189L91.416 31.2849L156.105 32.9112C154.901 34.0964 150.043 41.6721 140.24 62.4931C127.986 88.5193 131.335 107.394 138.837 121.056C146.338 134.719 150.038 135.836 153.606 139.786C157.173 143.737 155.043 151.133 150.359 153.148C145.675 155.163 139.278 155.999 135.514 151.129C135.586 152.102 135.594 153.151 135.514 154.273C135.088 160.309 126.993 163.682 119.759 161.808C112.524 159.933 112.315 154.886 114.058 151.133C112.312 151.804 106.975 153.148 99.6019 153.148C90.3855 153.148 85.5648 151.738 82.4858 147.999C79.858 144.809 81.0547 141.35 82.4858 139.463C84.9165 135.995 87.2528 132.078 90.019 125.183C91.8114 120.715 93.7842 114.997 96.0802 107.341Z" fill="#6E44FF"/>
<g style="mix-blend-mode:multiply">
<path fill-rule="evenodd" clip-rule="evenodd" d="M85.4548 150.563C84.2979 149.87 83.3256 149.022 82.4835 147.999C79.8557 144.809 81.0525 141.35 82.4835 139.463C84.7919 136.169 87.0151 132.471 89.6021 126.202C92.7336 131.232 94.6545 137.358 94.6545 143.845C94.6545 146.58 91.0501 149.012 85.4548 150.563Z" fill="#69CFFF" fill-opacity="0.15"/>
</g>
<g style="mix-blend-mode:multiply">
<path fill-rule="evenodd" clip-rule="evenodd" d="M114.05 151.138C114.051 151.136 114.052 151.134 114.053 151.133C112.513 151.725 108.18 152.84 102.121 153.095C106.367 152.183 110.281 150.154 112.481 146.786C115.771 141.748 116.594 134.746 117.131 130.179L117.131 130.179L117.131 130.179C117.275 128.957 117.398 127.909 117.543 127.12C118.22 141.859 115.336 149.056 114.054 151.133L114.05 151.138ZM147.9 154.033C143.62 155.283 138.65 155.191 135.511 151.131L135.51 151.129C135.196 146.868 133.563 143.448 130.861 138.719C133.338 140.71 136.355 143.903 138.004 148.977C139.162 152.54 142.209 154.68 147.9 154.033Z" fill="#6E44FF" fill-opacity="0.3"/>
</g>
<g style="mix-blend-mode:multiply">
<path fill-rule="evenodd" clip-rule="evenodd" d="M96.9373 104.072C96.6766 105.207 96.391 106.3 96.0787 107.341C96.0013 107.599 95.9243 107.855 95.8477 108.109C97.4361 108.843 99.3129 109.474 101.356 109.704C107.382 110.383 113.235 107.026 113.235 107.026C113.235 107.026 107.382 104.94 101.356 104.261C99.7626 104.082 98.2704 104.039 96.9373 104.072ZM132.698 86.6499C131.6 86.6554 130.429 86.7172 129.271 86.874C124.812 87.4772 121.808 89.6773 121.808 89.6773C121.808 89.6773 126.686 91.6654 131.145 91.0621C131.529 91.0102 131.9 90.9377 132.258 90.8484C132.355 89.4775 132.501 88.0782 132.698 86.6499ZM111.942 70.7692C116.411 71.2979 123.025 68.969 123.025 68.969C123.025 68.969 117.452 66.7219 112.984 66.1932C108.515 65.6646 103.772 68.1382 103.772 68.1382C103.772 68.1382 107.474 70.2406 111.942 70.7692Z" fill="#6E44FF" fill-opacity="0.3"/>
</g>
<path fill-rule="evenodd" clip-rule="evenodd" d="M99.8203 166.667C100.83 162.293 102.298 157.69 104.84 152.244L109.878 154.868C107.735 159.457 106.647 164.496 106.105 168.467C105.837 170.437 105.707 172.106 105.645 173.274C105.623 173.685 105.61 174.032 105.602 174.307H105.599C105.599 174.307 105.599 174.307 105.599 174.307C105.599 175.191 104.067 175.906 102.176 175.906C100.286 175.906 98.754 175.191 98.754 174.307C98.754 174.307 98.754 174.307 98.754 174.307H98.7539C98.7539 174.306 98.754 174.305 98.754 174.305C98.754 174.293 98.7543 174.282 98.7548 174.271C98.7641 173.919 98.7805 173.461 98.8098 172.911C98.8493 172.168 99.0691 170.98 99.307 169.694C99.4927 168.689 99.6895 167.626 99.8203 166.667Z" fill="#6E44FF"/>
<path fill-rule="evenodd" clip-rule="evenodd" d="M92.2593 149.182C93.9822 143.041 101.989 139.918 110.143 142.206C118.297 144.493 123.51 151.326 121.787 157.467C120.763 161.116 113.323 162.221 105.169 159.933C97.0153 157.645 91.2353 152.832 92.2593 149.182Z" fill="#69CFFF"/>
<g style="mix-blend-mode:multiply">
<path fill-rule="evenodd" clip-rule="evenodd" d="M112.714 151.345C114.759 153.945 118.137 154.7 120.259 153.031C120.776 152.625 121.171 152.112 121.443 151.531C120.181 148.225 117.228 145.212 113.237 143.35C113.106 143.43 112.979 143.519 112.856 143.615C110.733 145.284 110.67 148.745 112.714 151.345ZM99.8037 150.253C101.44 150.062 102.639 148.824 102.483 147.489C102.327 146.154 100.874 145.226 99.2382 145.418C97.6024 145.609 96.403 146.846 96.5591 148.182C96.7153 149.517 98.168 150.445 99.8037 150.253ZM110.084 156.877C109.973 157.824 108.944 158.482 107.784 158.347C106.624 158.211 105.774 157.334 105.884 156.387C105.995 155.441 107.024 154.783 108.184 154.918C109.344 155.054 110.194 155.931 110.084 156.877Z" fill="#69CFFF" fill-opacity="0.3"/>
</g>
<path d="M72.8842 161.821C73.0247 163.167 70.7015 164.266 68.009 164.266C65.3165 164.266 62.9255 163.079 63.1338 161.821C65.9229 144.973 59.3862 140.382 68.009 140.382C76.0236 140.382 70.9937 143.7 72.8842 161.821Z" fill="#6E44FF"/>
<path fill-rule="evenodd" clip-rule="evenodd" d="M49.3438 138.9C49.3438 119.021 56.7654 101.936 67.5954 101.936C78.4255 101.936 88.5629 119.021 88.5629 138.9C88.5629 144.593 79.7834 149.208 68.9533 149.208C58.1233 149.208 49.3438 144.593 49.3438 138.9Z" fill="#69CFFF"/>
<g style="mix-blend-mode:multiply">
<path fill-rule="evenodd" clip-rule="evenodd" d="M50.3555 126.76C51.6986 118.815 54.3198 112.021 57.8729 107.612C60.9737 105.914 64.1638 105.676 66.3573 107.306C69.9652 109.987 69.5111 116.708 65.3431 122.316C61.1751 127.925 54.8715 130.298 51.2636 127.617C50.9253 127.366 50.6227 127.079 50.3555 126.76ZM84.4776 141.87C81.9069 145.33 76.8981 145.961 73.2903 143.279C69.6824 140.598 68.8416 135.62 71.4124 132.161C73.9831 128.702 78.9918 128.071 82.5997 130.752C86.2076 133.433 87.0483 138.411 84.4776 141.87Z" fill="#69CFFF" fill-opacity="0.3"/>
</g>
<path d="M92.2884 141.89L92.1539 143.052L93.2176 143.539L92.0708 143.77L91.9363 144.933L91.3619 143.913L90.2151 144.144L91.007 143.283L90.4327 142.264L91.4964 142.751L92.2884 141.89Z" fill="white"/>
<path d="M94.642 137.339L94.8096 138.079L95.5656 138.149L94.9132 138.537L95.0808 139.277L94.51 138.777L93.8576 139.165L94.1572 138.468L93.5865 137.967L94.3424 138.036L94.642 137.339Z" fill="white"/>
<path d="M95.7788 127.216L95.9463 127.956L96.7023 128.025L96.0499 128.414L96.2175 129.154L95.6467 128.654L94.9943 129.042L95.294 128.344L94.7232 127.844L95.4791 127.913L95.7788 127.216Z" fill="white"/>
<path d="M99.5522 71.0797L99.7198 71.8201L100.476 71.8895L99.8233 72.2777L99.9909 73.0181L99.4201 72.5176L98.7678 72.9057L99.0674 72.2082L98.4966 71.7078L99.2526 71.7772L99.5522 71.0797Z" fill="white"/>
<path d="M94.3934 77.0356L93.8226 79.0017L95.5161 80.1521L93.4699 80.2168L92.8991 82.1829L92.2052 80.2568L90.1589 80.3215L91.7763 79.0664L91.0825 77.1403L92.776 78.2907L94.3934 77.0356Z" fill="white"/>
<path d="M95.9298 66.7718L95.3245 67.8459L96.159 68.7536L94.9503 68.5098L94.3449 69.5839L94.2033 68.3591L92.9947 68.1153L94.1158 67.6021L93.9742 66.3773L94.8087 67.2849L95.9298 66.7718Z" fill="white"/>
<path d="M106.075 129.686L105.302 131.441L106.733 132.719L104.825 132.526L104.052 134.282L103.645 132.408L101.737 132.215L103.394 131.249L102.987 129.375L104.418 130.652L106.075 129.686Z" fill="white"/>
<path d="M130.395 82.2604L129.623 84.0159L131.054 85.2931L129.145 85.1009L128.373 86.8564L127.966 84.982L126.057 84.7898L127.714 83.8236L127.307 81.9493L128.738 83.2265L130.395 82.2604Z" fill="white"/>
<path d="M87.8915 130.657L88.2603 132.286L89.924 132.439L88.4882 133.293L88.857 134.923L87.6009 133.821L86.1651 134.676L86.8245 133.141L85.5683 132.039L87.2321 132.192L87.8915 130.657Z" fill="white"/>
</g>
</svg>
