<svg width="245" height="228" viewBox="0 0 245 228" fill="none" xmlns="http://www.w3.org/2000/svg">
<g filter="url(#filter0_d_193_1882)">
<path d="M203.879 178.616C162.76 229.944 99.5414 229.353 55.4673 196.086C-5.41627 150.132 -6.57548 90.133 32.7911 59.427C89.496 15.197 167.991 -15.1588 212.066 18.1082C256.14 51.3752 238.152 135.834 203.879 178.616Z" fill="#6E44FF"/>
</g>
<g style="mix-blend-mode:multiply">
<ellipse cx="124.525" cy="112.505" rx="28.4628" ry="29.0819" fill="#6E44FF" fill-opacity="0.3"/>
</g>
<path d="M161.994 70.1576L178.572 80.3211M178.572 80.3211L161.994 90.4845M178.572 80.3211V98.6153M178.572 125.04V144.69M178.572 144.69L161.994 134.526M178.572 144.69L161.994 154.176M141.436 167.049L124.858 176.535M124.858 176.535L107.616 167.049M124.858 176.535V156.886M70.4805 125.04V144.69M70.4805 144.69L85.7327 134.526M70.4805 144.69L85.7327 154.176M70.4805 99.9704V80.3211M70.4805 80.3211L85.7327 71.5128M70.4805 80.3211L85.7327 90.4845M107.616 58.639L124.858 48.4756M124.858 48.4756V70.1576M124.858 48.4756L141.436 58.639" stroke="white" stroke-width="3" stroke-linecap="round" stroke-linejoin="round"/>
<path d="M142.539 86.5415C145.954 82.9946 152.375 85.3062 155.397 87.8531C160.077 91.7932 158.766 100.346 156.592 105.059C156.27 105.769 157.303 106.701 158.1 106.525C161.712 101.215 163.785 93.1116 159.727 87.3959C155.689 81.7048 147.602 80.8681 141.672 83.4708C124.627 90.9565 137.343 108.427 142.146 115.811C145.624 121.139 148.856 126.604 149.743 133C150.202 136.321 149.441 138.932 147.845 140.963C146.668 140.865 145.505 140.636 144.38 140.279C141.768 138.502 139.694 135.773 137.769 133.313C136.143 131.241 134.791 128.887 133.323 126.702C130.827 122.997 103.893 88.3764 99.7831 88.4172C87.2218 88.5682 102.19 96.3905 106.486 115.6C106.359 115.665 106.315 115.707 106.373 115.718C106.43 115.729 106.464 115.752 106.522 115.765C107.145 118.583 107.472 121.458 107.497 124.344C105.545 127.765 102.711 131.215 101.848 132.69C91.3757 150.649 107.714 157.329 141.35 153.879C197.098 148.178 128.614 101.019 142.535 86.532" fill="white"/>
<path d="M149.28 83.9365C147.568 84.1491 145.899 84.6213 144.331 85.3365C147.873 83.7555 152.841 85.6998 155.399 87.8535C160.078 91.7936 158.767 100.346 156.593 105.059C156.271 105.769 157.304 106.701 158.102 106.526C160.654 102.77 162.386 97.6317 161.784 92.9202C159.16 87.9787 155.498 83.1297 149.284 83.9379L149.28 83.9365ZM142.538 86.5419C142.928 86.1434 143.376 85.8049 143.866 85.5379C137.091 88.9569 135.321 96.7895 140.083 104.722C144.928 112.8 151.828 119.043 155.599 127.776C158.111 133.595 156.336 141.553 151.276 144.062C150.98 144.626 150.431 145.074 149.558 145.234C138.476 147.248 130.523 139.13 124.874 130.467C116.092 116.991 109.927 96.6202 94.5109 88.8842C93.7602 92.7549 103.243 101.094 106.481 115.6C106.354 115.666 106.31 115.708 106.367 115.719C106.425 115.73 106.459 115.753 106.517 115.765C107.14 118.584 107.467 121.459 107.492 124.345C105.54 127.765 102.706 131.215 101.843 132.69C91.3718 150.652 107.71 157.33 141.346 153.882C197.094 148.181 128.611 101.022 142.531 86.5351" fill="#69CFFF" fill-opacity="0.15"/>
<path d="M113.526 146.997C111.464 143.976 107.849 142.289 104.756 141.142C96.505 138.08 95.0379 144.049 95.041 144.106C93.7263 148.156 91.917 152.986 110.835 153.75C113.846 153.873 115.526 149.92 113.525 147.002" fill="#69CFFF"/>
<path d="M113.397 157.666C137.837 162.076 136.846 155.372 136.255 149.819C136.281 149.749 136.029 141.683 124.622 143.256C120.349 143.848 115.255 144.984 111.788 148.267C108.428 151.433 109.506 156.974 113.397 157.666Z" fill="#69CFFF"/>
<g style="mix-blend-mode:multiply">
<path d="M113.397 157.666C137.837 162.076 136.846 155.373 136.255 149.819C136.281 149.75 136.029 141.684 124.622 143.257C120.349 143.849 115.255 144.985 111.788 148.268C108.428 151.433 109.506 156.974 113.397 157.666Z" fill="#69CFFF" fill-opacity="0.3"/>
</g>
<path d="M131.436 157.061C161.151 156.139 158.318 148.536 156.272 142.182C156.283 142.097 154 132.718 141.024 137.397C136.164 139.15 130.482 141.752 127.228 146.457C124.074 151.002 126.705 157.217 131.434 157.062" fill="#69CFFF"/>
<path d="M96.8112 92.122C86.1676 95.7002 103.334 75.8635 103.701 77.371C104.823 82.0866 98.3276 91.6159 96.8112 92.122Z" fill="#69CFFF"/>
<path d="M101.591 92.7979C87.2257 95.4115 113.069 73.1176 113.237 75.1285C113.784 81.4006 103.621 92.4332 101.591 92.7979Z" fill="#69CFFF"/>
<path d="M89.7703 107.243C94.7058 106.675 98.9687 103.419 102.245 100.44C110.978 92.4725 104.57 86.9215 104.495 86.8916C100.358 82.7379 97.1016 80.1705 84.7129 102.405C82.7431 105.939 84.9924 107.794 89.7703 107.248" fill="white"/>
<path d="M97.6852 97.5298C96.666 96.4958 96.0126 94.9666 95.9852 93.2441C95.9359 90.0836 98.0427 87.4863 100.674 87.4482C102.867 87.4155 104.74 89.1979 105.314 91.6346C102.417 93.1747 99.7933 95.0985 97.6852 97.5298Z" fill="#69CFFF"/>
<path d="M151.594 101.27C151.552 98.1607 154.309 105.132 157.942 105.082C161.576 105.03 164.699 97.9716 164.742 101.082C164.788 104.188 161.988 114.343 158.357 114.393C154.73 114.446 151.638 104.376 151.594 101.27Z" fill="#56C4FF"/>
<defs>
<filter id="filter0_d_193_1882" x="0" y="0" width="244.148" height="227.393" filterUnits="userSpaceOnUse" color-interpolation-filters="sRGB">
<feFlood flood-opacity="0" result="BackgroundImageFix"/>
<feColorMatrix in="SourceAlpha" type="matrix" values="0 0 0 0 0 0 0 0 0 0 0 0 0 0 0 0 0 0 127 0" result="hardAlpha"/>
<feOffset dy="2"/>
<feGaussianBlur stdDeviation="3"/>
<feComposite in2="hardAlpha" operator="out"/>
<feColorMatrix type="matrix" values="0 0 0 0 0.431373 0 0 0 0 0.266667 0 0 0 0 1 0 0 0 0.3 0"/>
<feBlend mode="normal" in2="BackgroundImageFix" result="effect1_dropShadow_193_1882"/>
<feBlend mode="normal" in="SourceGraphic" in2="effect1_dropShadow_193_1882" result="shape"/>
</filter>
</defs>
</svg>
