<svg width="298" height="307" viewBox="0 0 298 307" fill="none" xmlns="http://www.w3.org/2000/svg">
<g style="mix-blend-mode:multiply">
<path d="M264.789 71.4321C325.315 156.301 296.916 208.404 221.482 276.987C146.049 345.57 61.2679 281.469 32.9846 208.404C-12.2791 91.4725 -14.1945 41.6851 49.6978 16.9525C113.59 -7.77999 204.263 -13.4364 264.789 71.4321Z" fill="#69CFFF" fill-opacity="0.3"/>
</g>
<path d="M196.402 193.575C171.858 225.138 134.125 224.774 107.818 204.318C71.4781 176.06 70.7862 139.166 94.2831 120.284C128.129 93.0868 174.981 74.4205 201.288 94.8769C227.594 115.333 216.858 167.268 196.402 193.575Z" fill="#6E44FF"/>
<ellipse cx="148.888" cy="153.524" rx="21.5947" ry="22.2002" fill="#69CFFF"/>
<path d="M177.314 121.197L189.892 128.955M189.892 128.955L177.314 136.714M189.892 128.955V142.921M189.892 163.093V178.092M189.892 178.092L177.314 170.334M189.892 178.092L177.314 185.334M161.717 195.161L149.139 202.402M149.139 202.402L136.058 195.161M149.139 202.402V187.403M107.883 163.093V178.092M107.883 178.092L119.455 170.334M107.883 178.092L119.455 185.334M107.883 143.955V128.955M107.883 128.955L119.455 122.231M107.883 128.955L119.455 136.714M136.058 146.024L149.139 153.782M149.139 153.782L161.717 146.024M149.139 153.782V168.782M136.058 112.404L149.139 104.646M149.139 104.646V121.197M149.139 104.646L161.717 112.404" stroke="white" stroke-width="3" stroke-linecap="round" stroke-linejoin="round"/>
</svg>
