<svg width="293" height="309" viewBox="0 0 293 309" fill="none" xmlns="http://www.w3.org/2000/svg">
<g style="mix-blend-mode:multiply">
<path d="M285.431 181.725C254.022 273.174 162.875 356.061 78.3321 276.13C-6.21086 196.198 -10.7867 154.265 12.2349 79.375C40.0958 -11.2574 101.999 -8.39077 167.487 11.7407C232.974 31.8721 316.841 90.2771 285.431 181.725Z" fill="#69CFFF" fill-opacity="0.3"/>
</g>
<path d="M157.596 284.035L275.05 216.223L197.593 160.159L124.176 129.116L6.72266 196.928L82.1594 225.95L157.596 284.035Z" fill="#6E44FF" stroke="#6E44FF" stroke-width="5" stroke-linecap="round" stroke-linejoin="round"/>
<path d="M157.596 267.483L275.05 199.671L199.613 156.118L124.176 112.564L6.72266 180.376C6.72266 180.376 30.2846 190.078 44.441 198.112C59.9655 206.922 82.1594 223.93 82.1594 223.93C82.1594 223.93 105.721 233.632 119.878 241.665C135.402 250.476 157.596 267.483 157.596 267.483Z" fill="#E6F7FF" stroke="#E6F7FF" stroke-width="3" stroke-linecap="round" stroke-linejoin="round"/>
<path d="M157.596 267.483L275.05 199.671L199.613 156.118L124.176 112.564L6.72266 180.376C6.72266 180.376 30.2846 190.078 44.441 198.112C59.9655 206.922 82.1594 223.93 82.1594 223.93C82.1594 223.93 105.721 233.632 119.878 241.665C135.402 250.476 157.596 267.483 157.596 267.483Z" fill="#E6F7FF" stroke="#E6F7FF" stroke-width="3" stroke-linecap="round" stroke-linejoin="round"/>
<path d="M124.176 112.564L6.72266 180.376C6.72266 180.376 30.2846 190.078 44.441 198.112C59.9655 206.922 82.1594 223.93 82.1594 223.93L199.613 156.118L124.176 112.564Z" fill="white" stroke="white" stroke-width="3" stroke-linecap="round" stroke-linejoin="round"/>
<path d="M119.879 232.628C135.575 238.423 157.597 252.952 157.597 252.952L216.324 219.046L245.687 202.093L260.369 193.617L275.051 185.14C275.051 185.14 253.029 170.611 237.332 164.817C223.151 159.582 199.614 156.118 199.614 156.118L82.1602 223.93C82.1602 223.93 105.697 227.394 119.879 232.628Z" fill="white" stroke="white" stroke-width="3" stroke-linecap="round" stroke-linejoin="round"/>
<path d="M249.604 187.047C249.604 187.047 235.218 177.555 224.964 173.77C215.7 170.351 200.324 168.088 200.324 168.088" stroke="#6E44FF" stroke-width="2" stroke-linecap="round" stroke-linejoin="round"/>
<path d="M185.645 176.564C185.645 176.564 201.02 178.827 210.285 182.247C216.227 184.441 223.558 188.551 228.671 191.619" stroke="#6E44FF" stroke-width="2" stroke-linecap="round" stroke-linejoin="round"/>
<path d="M220.241 204C220.241 204 205.855 194.509 195.601 190.723C186.337 187.304 170.961 185.041 170.961 185.041" stroke="#6E44FF" stroke-width="2" stroke-linecap="round" stroke-linejoin="round"/>
<path d="M156.281 193.517C156.281 193.517 171.657 195.78 180.921 199.2C186.468 201.247 193.224 204.965 198.258 207.946" stroke="#6E44FF" stroke-width="2" stroke-linecap="round" stroke-linejoin="round"/>
<path d="M141.598 201.994C141.598 201.994 156.974 204.257 166.238 207.676C172.634 210.037 180.637 214.619 185.755 217.732" stroke="#6E44FF" stroke-width="2" stroke-linecap="round" stroke-linejoin="round"/>
<path d="M176.198 229.43C176.198 229.43 161.812 219.938 151.558 216.153C142.294 212.733 126.918 210.47 126.918 210.47" stroke="#6E44FF" stroke-width="2" stroke-linecap="round" stroke-linejoin="round"/>
<path d="M161.514 237.906C161.514 237.906 147.129 228.415 136.874 224.629C127.61 221.21 112.234 218.947 112.234 218.947" stroke="#6E44FF" stroke-width="2" stroke-linecap="round" stroke-linejoin="round"/>
<path d="M94.8594 216.598L186.704 163.571" stroke="#E6F7FF" stroke-width="2" stroke-linecap="round" stroke-linejoin="round"/>
<ellipse cx="106.578" cy="163.886" rx="12.9691" ry="8.74661" transform="rotate(3.4136 106.578 163.886)" fill="#69CFFF"/>
<path d="M125.312 152.567L118.822 150.899M125.312 152.567L127.184 156.979M125.312 152.567L120.67 155.301M132.802 170.216L130.929 165.803M132.802 170.216L128.133 172.96M132.802 170.216L126.288 168.537M114.127 181.195L107.64 179.506M114.127 181.195L118.796 178.45M114.127 181.195L112.28 176.783M88.1792 174.439L86.3036 170.023M88.1792 174.439L94.6662 176.128M88.1792 174.439L92.8208 171.705M80.6765 156.774L85.3452 154.054M80.6765 156.774L82.5522 161.19M80.6765 156.774L87.1922 158.467M99.3514 145.897L94.6827 148.616M99.3514 145.897L105.841 147.564M99.3514 145.897L101.198 150.309M106.739 163.546L104.892 159.134M113.26 165.181L106.745 163.503L102.104 166.237" stroke="#6E44FF" stroke-width="2" stroke-linecap="round" stroke-linejoin="round"/>
<path d="M151.215 162.992C151.215 177.921 130.687 190.024 105.365 190.024C80.0432 190.024 59.5156 177.921 59.5156 162.992C59.5156 140.873 105.365 48.2551 105.365 48.2551C105.365 48.2551 151.215 140.877 151.215 162.992Z" fill="#6E44FF" fill-opacity="0.15"/>
<ellipse cx="105.365" cy="162.992" rx="45.8496" ry="27.0321" fill="#6E44FF" fill-opacity="0.15"/>
<path d="M104.995 48.2551L121.662 84.2253M104.995 48.2551L87.0898 87.172M104.995 48.2551L97.8251 92.0087M104.995 48.2551L113.296 93.8323" stroke="#6E44FF" stroke-width="2" stroke-linecap="round" stroke-dasharray="4 4"/>
<path d="M127.665 46.4072C128.129 46.1392 128.415 45.644 128.415 45.1082L128.415 40.8689C128.415 40.333 128.129 39.8378 127.665 39.5699L88.9282 17.2051C86.9171 16.044 84.4393 16.044 82.4282 17.2051L11.5508 58.1262C11.0867 58.3941 10.8008 58.8893 10.8008 59.4252L10.8008 63.6644C10.8008 64.2003 11.0867 64.6955 11.5508 64.9635L50.2877 87.3282C52.2988 88.4893 54.7766 88.4893 56.7877 87.3282L127.665 46.4072Z" fill="white" stroke="white" stroke-width="3" stroke-linecap="round" stroke-linejoin="round"/>
<g style="mix-blend-mode:multiply">
<path d="M83.1782 18.5042L12.3008 59.4252L51.0377 81.79C52.5847 82.6831 54.4907 82.6831 56.0377 81.79L126.915 40.8689L88.1782 18.5042C86.6312 17.611 84.7252 17.611 83.1782 18.5042Z" fill="#69CFFF" fill-opacity="0.15"/>
<path d="M11.5508 58.1262C11.0867 58.3941 10.8008 58.8893 10.8008 59.4252C10.8008 59.9611 11.0867 60.4563 11.5508 60.7243L50.2877 83.089C52.2988 84.2501 54.7766 84.2501 56.7877 83.089L127.665 42.168C128.129 41.9 128.415 41.4048 128.415 40.8689C128.415 40.333 128.129 39.8378 127.665 39.5699L88.9282 17.2051C86.9171 16.044 84.4393 16.044 82.4282 17.2051L11.5508 58.1262Z" stroke="#69CFFF" stroke-opacity="0.15" stroke-width="3" stroke-linecap="round" stroke-linejoin="round"/>
</g>
<ellipse cx="33.7644" cy="69.7506" rx="4.67849" ry="3.059" fill="#6E44FF"/>
<path d="M22.1133 56.2723C21.9586 56.3616 21.8633 56.5266 21.8633 56.7053C21.8633 56.8839 21.9586 57.049 22.1133 57.1383L55.5368 76.4353C57.2385 77.4178 59.3351 77.4178 61.0368 76.4353L122.459 40.973C122.614 40.8837 122.709 40.7186 122.709 40.54C122.709 40.3613 122.614 40.1963 122.459 40.107L89.0359 20.8099C87.3342 19.8274 85.2376 19.8274 83.5359 20.8099L22.1133 56.2723Z" fill="#6E44FF" stroke="#6E44FF" stroke-linecap="round" stroke-linejoin="round"/>
</svg>
