<svg width="235" height="224" viewBox="0 0 235 224" fill="none" xmlns="http://www.w3.org/2000/svg">
<g filter="url(#filter0_d_193_1880)">
<path d="M195.51 175.225C156.129 225.557 95.585 224.978 53.375 192.356C-4.93341 147.294 -6.04358 88.4605 31.6579 58.3507C85.9644 14.9796 161.14 -14.7868 203.35 17.8342C245.56 50.4553 228.333 133.275 195.51 175.225Z" fill="#6E44FF"/>
</g>
<g style="mix-blend-mode:multiply">
<ellipse cx="121.021" cy="109.157" rx="28.4628" ry="29.0819" fill="#6E44FF" fill-opacity="0.3"/>
</g>
<path d="M158.49 66.809L175.068 76.9725M175.068 76.9725L158.49 87.1359M175.068 76.9725V95.2667M175.068 121.692V141.341M175.068 141.341L158.49 131.178M175.068 141.341L158.49 150.827M137.932 163.701L121.354 173.187M121.354 173.187L104.112 163.701M121.354 173.187V153.537M66.9766 121.692V141.341M66.9766 141.341L82.2288 131.178M66.9766 141.341L82.2288 150.827M66.9766 96.6218V76.9725M66.9766 76.9725L82.2288 68.1641M66.9766 76.9725L82.2288 87.1359M104.112 55.2904L121.354 45.127M121.354 45.127V66.809M121.354 45.127L137.932 55.2904" stroke="white" stroke-width="3" stroke-linecap="round" stroke-linejoin="round"/>
<path d="M100.832 145.919L115.785 114.602L120.644 117.39L100.832 145.919Z" stroke="#E6F7FF" stroke-width="5" stroke-linecap="round" stroke-linejoin="round"/>
<ellipse rx="8.45302" ry="4.95017" transform="matrix(0.867348 0.497702 -0.502302 0.864693 112.841 125.243)" fill="white"/>
<path d="M140.299 91.4257C139.11 93.4733 135.917 92.9505 132.682 91.0942C129.447 89.2379 127.395 86.751 128.584 84.7034C129.774 82.6559 133.611 82.0698 136.846 83.9261C140.081 85.7824 141.489 89.3782 140.299 91.4257Z" fill="white"/>
<path fill-rule="evenodd" clip-rule="evenodd" d="M119.373 130.351C126.341 126.368 134.603 117.428 141.372 105.775C152.101 87.3063 147.883 64.9239 147.883 64.9239C147.883 64.9239 126.272 72.4849 115.543 90.9535C108.774 102.607 105.115 114.188 105.129 122.178L119.373 130.351Z" fill="white"/>
<ellipse rx="8.45302" ry="4.95017" transform="matrix(0.867348 0.497702 -0.502302 0.864693 112.841 125.243)" fill="#69CFFF" fill-opacity="0.15"/>
<ellipse rx="5.12027" ry="2.99848" transform="matrix(0.867348 0.497702 -0.502302 0.864693 113.415 124.26)" fill="#69CFFF" fill-opacity="0.3"/>
<path d="M114.284 103.003C114.528 102.481 114.496 101.873 114.2 101.379C113.904 100.884 113.381 100.567 112.803 100.531C105.148 100.054 91.5077 100.953 81.5398 115.97C81.1327 116.583 81.1564 117.385 81.599 117.973C82.0417 118.562 82.8082 118.811 83.5153 118.596C84.644 118.254 85.8168 117.798 87.0448 117.321C92.4319 115.227 98.8804 112.721 107.326 117.567C107.817 117.849 108.415 117.877 108.932 117.642C109.448 117.408 109.818 116.94 109.924 116.386C111.041 110.6 113.242 105.239 114.284 103.003Z" fill="#E6F7FF"/>
<path d="M131.502 112.883C131.835 112.413 132.381 112.136 132.959 112.144C133.538 112.152 134.076 112.443 134.396 112.922C138.639 119.273 144.677 131.463 136.575 147.551C136.244 148.208 135.534 148.588 134.8 148.502C134.066 148.415 133.465 147.88 133.299 147.164C133.033 146.021 132.844 144.784 132.646 143.488C131.776 137.804 130.736 131.001 122.291 126.155C121.799 125.873 121.476 125.372 121.422 124.81C121.368 124.249 121.591 123.696 122.02 123.327C126.504 119.473 130.074 114.898 131.502 112.883Z" fill="#E6F7FF"/>
<path d="M141.982 91.1262C140.562 93.5695 136.752 92.9457 132.892 90.7305C129.032 88.5154 126.583 85.5478 128.002 83.1045C129.422 80.6611 134.001 79.9617 137.861 82.1769C141.721 84.392 143.401 88.6829 141.982 91.1262Z" fill="#69CFFF" fill-opacity="0.3"/>
<path fill-rule="evenodd" clip-rule="evenodd" d="M128.43 86.9454C128.149 86.175 128.172 85.4128 128.584 84.7034C129.774 82.6559 133.611 82.0698 136.846 83.9261C140.081 85.7824 141.489 89.3782 140.299 91.4257C139.886 92.1363 139.232 92.5373 138.419 92.6805C136.793 92.5672 134.85 91.8533 132.894 90.7309C130.936 89.6072 129.341 88.2898 128.43 86.9454Z" fill="#69CFFF"/>
<path d="M115.564 133.567C113.756 136.678 103.162 141.906 103.162 141.906C103.162 141.906 102.42 130.173 104.227 127.062C106.035 123.95 110.038 122.884 113.168 124.681C116.299 126.477 117.371 130.455 115.564 133.567Z" fill="#69CFFF"/>
<g style="mix-blend-mode:multiply">
<path d="M114.432 131.139C113.233 133.203 106.204 136.671 106.204 136.671C106.204 136.671 105.712 128.887 106.911 126.823C108.11 124.759 110.766 124.052 112.843 125.243C114.919 126.435 115.631 129.074 114.432 131.139Z" fill="#69CFFF" fill-opacity="0.3"/>
</g>
<defs>
<filter id="filter0_d_193_1880" x="0" y="0" width="234.328" height="223.21" filterUnits="userSpaceOnUse" color-interpolation-filters="sRGB">
<feFlood flood-opacity="0" result="BackgroundImageFix"/>
<feColorMatrix in="SourceAlpha" type="matrix" values="0 0 0 0 0 0 0 0 0 0 0 0 0 0 0 0 0 0 127 0" result="hardAlpha"/>
<feOffset dy="2"/>
<feGaussianBlur stdDeviation="3"/>
<feComposite in2="hardAlpha" operator="out"/>
<feColorMatrix type="matrix" values="0 0 0 0 0.431373 0 0 0 0 0.266667 0 0 0 0 1 0 0 0 0.3 0"/>
<feBlend mode="normal" in2="BackgroundImageFix" result="effect1_dropShadow_193_1880"/>
<feBlend mode="normal" in="SourceGraphic" in2="effect1_dropShadow_193_1880" result="shape"/>
</filter>
</defs>
</svg>
